# xmcd
#
# Track frame offsets:
#	150
#	10173
#	20975
#	33272
#	43297
#	53612
#	63451
#	74808
#	83034
#	92969
#	106677
#	114658
#	123074
#	136482
#	148082
#	159768
#	178372
#	192391
#	209765
#	223504
#
# Disc length: 3147 seconds
#
# Revision: 0
# Processed by: cddbd v1.5.1PL0 Copyright (c) Steve Scherf et al.
# Submitted via: EasyCDDAExtractor 8.0.1.1
#
DISCID=2e0c4914
DTITLE=Johnny Cash - The Essential Johnny Cash (Vol. 1)
DYEAR=2002
DGENRE=Country
TTITLE0=Hey Porter [mono]
TTITLE1=Cry, Cry, Cry [mono]
TTITLE2=I Walk The Line [mono]
TTITLE3=Get Rhythm [mono]
TTITLE4=There You Go [mono]
TTITLE5=Ballard Of A Teenage Queen [mono]
TTITLE6=Big River [mono]
TTITLE7=Guess Things Happen That Way [mono]
TTITLE8=All Over Again
TTITLE9=Don't Take Your Guns To Town
TTITLE10=Five Feet High And Rising
TTITLE11=The Rebel - Johnny Yuma
TTITLE12=Tennessee Flat-Top Box
TTITLE13=I Still Miss Someone
TTITLE14=Ring Of Fire
TTITLE15=The Ballard Of Ira Hayes
TTITLE16=Orange Blossom Special
TTITLE17=Were You There (When They Crucified My Lord) (With The Carter Family)
TTITLE18=It Ain't Me, Babe (With June Carter Cash)
TTITLE19=The One On The Right Is On The Left
EXTD=
EXTT0=
EXTT1=
EXTT2=
EXTT3=
EXTT4=
EXTT5=
EXTT6=
EXTT7=
EXTT8=
EXTT9=
EXTT10=
EXTT11=
EXTT12=
EXTT13=
EXTT14=
EXTT15=
EXTT16=
EXTT17=
EXTT18=
EXTT19=
PLAYORDER=
